<svg xmlns="http://www.w3.org/2000/svg" xmlns:xlink="http://www.w3.org/1999/xlink" width="793" zoomAndPan="magnify" viewBox="0 0 595.5 595.499986" height="793" preserveAspectRatio="xMidYMid meet" version="1.0"><defs><g/><clipPath id="1eb266411a"><path d="M 7.980469 0 L 586.792969 0 L 586.792969 578.8125 L 7.980469 578.8125 Z M 7.980469 0 " clip-rule="nonzero"/></clipPath><clipPath id="037e8fa4c6"><path d="M 297.386719 0 C 457.222656 0 586.792969 129.570312 586.792969 289.40625 C 586.792969 449.242188 457.222656 578.8125 297.386719 578.8125 C 137.554688 578.8125 7.980469 449.242188 7.980469 289.40625 C 7.980469 129.570312 137.554688 0 297.386719 0 L 297.386719 98.398438 C 191.898438 98.398438 106.378906 183.914062 106.378906 289.40625 C 106.378906 394.898438 191.898438 480.414062 297.386719 480.414062 C 402.878906 480.414062 488.394531 394.898438 488.394531 289.40625 C 488.394531 183.914062 402.878906 98.398438 297.386719 98.398438 Z M 297.386719 0 " clip-rule="nonzero"/></clipPath><clipPath id="7ce48ef483"><path d="M 297 5 L 586.792969 5 L 586.792969 574 L 297 574 Z M 297 5 " clip-rule="nonzero"/></clipPath><clipPath id="12cd66a9da"><path d="M 356.664062 6.136719 C 490.75 34.195312 586.792969 152.417969 586.792969 289.40625 C 586.792969 426.394531 490.75 544.617188 356.664062 572.675781 C 330.066406 578.242188 303.996094 561.195312 298.429688 534.597656 C 292.867188 508 309.914062 481.929688 336.511719 476.363281 C 425.007812 457.847656 488.394531 379.820312 488.394531 289.40625 C 488.394531 198.992188 425.007812 120.964844 336.511719 102.449219 C 309.914062 96.882812 292.867188 70.808594 298.429688 44.214844 C 303.996094 17.617188 330.066406 0.570312 356.664062 6.136719 Z M 356.664062 6.136719 " clip-rule="nonzero"/></clipPath></defs><g fill="#ffffff" fill-opacity="1"><g transform="translate(163.176031, 339.569733)"><g><path d="M 45.96875 -52.921875 C 50.84375 -52.921875 55.171875 -52.1875 58.953125 -50.71875 C 62.734375 -49.257812 65.703125 -46.757812 67.859375 -43.21875 C 70.015625 -39.6875 71.09375 -34.710938 71.09375 -28.296875 C 71.09375 -22.679688 70.09375 -18.023438 68.09375 -14.328125 C 66.101562 -10.628906 63.421875 -7.742188 60.046875 -5.671875 C 56.679688 -3.597656 52.882812 -2.132812 48.65625 -1.28125 C 44.425781 -0.425781 40.035156 0 35.484375 0 C 25.160156 0 17.148438 -1.28125 11.453125 -3.84375 C 5.765625 -6.40625 2.921875 -10.816406 2.921875 -17.078125 C 2.921875 -21.460938 4.382812 -24.851562 7.3125 -27.25 C 10.238281 -29.644531 14.019531 -30.5625 18.65625 -30 C 22.226562 -29.59375 26.128906 -29.144531 30.359375 -28.65625 C 34.585938 -28.164062 39.0625 -27.960938 43.78125 -28.046875 C 46.945312 -28.046875 49.238281 -28.550781 50.65625 -29.5625 C 52.082031 -30.582031 52.796875 -32.066406 52.796875 -34.015625 C 52.796875 -36.378906 52.082031 -38.191406 50.65625 -39.453125 C 49.238281 -40.710938 46.945312 -41.34375 43.78125 -41.34375 L 19.265625 -41.34375 C 14.878906 -41.34375 11.503906 -42.15625 9.140625 -43.78125 C 6.785156 -45.40625 5.609375 -48.332031 5.609375 -52.5625 L 5.609375 -72.671875 C 5.609375 -76.898438 6.28125 -80.148438 7.625 -82.421875 C 8.96875 -84.703125 10.835938 -86.289062 13.234375 -87.1875 C 15.628906 -88.082031 18.375 -88.53125 21.46875 -88.53125 L 54.5 -88.53125 C 59.789062 -88.53125 63.488281 -87.347656 65.59375 -84.984375 C 67.707031 -82.628906 68.765625 -79.539062 68.765625 -75.71875 C 68.765625 -71.894531 67.707031 -68.742188 65.59375 -66.265625 C 63.488281 -63.785156 59.789062 -62.546875 54.5 -62.546875 C 50.28125 -62.546875 46.078125 -63.476562 41.890625 -65.34375 C 37.703125 -67.21875 34.1875 -69.785156 31.34375 -73.046875 L 28.90625 -73.046875 L 28.90625 -52.921875 Z M 45.96875 -52.921875 "/></g></g></g><g fill="#ffffff" fill-opacity="1"><g transform="translate(237.298821, 339.569733)"><g><path d="M 37.796875 0.359375 C 29.671875 0.359375 23.046875 -1.46875 17.921875 -5.125 C 12.804688 -8.78125 9.046875 -13.976562 6.640625 -20.71875 C 4.242188 -27.46875 3.046875 -35.394531 3.046875 -44.5 C 3.046875 -53.613281 4.328125 -61.519531 6.890625 -68.21875 C 9.453125 -74.925781 13.289062 -80.148438 18.40625 -83.890625 C 23.53125 -87.628906 29.992188 -89.5 37.796875 -89.5 C 45.597656 -89.5 52.082031 -87.628906 57.25 -83.890625 C 62.414062 -80.148438 66.273438 -74.925781 68.828125 -68.21875 C 71.390625 -61.519531 72.671875 -53.613281 72.671875 -44.5 C 72.671875 -35.394531 71.472656 -27.46875 69.078125 -20.71875 C 66.679688 -13.976562 62.921875 -8.78125 57.796875 -5.125 C 52.671875 -1.46875 46.003906 0.359375 37.796875 0.359375 Z M 16.703125 -46.21875 C 16.703125 -43.695312 17.25 -41.316406 18.34375 -39.078125 C 19.445312 -36.847656 21.519531 -35.0625 24.5625 -33.71875 C 27.613281 -32.375 32.023438 -31.703125 37.796875 -31.703125 C 43.648438 -31.703125 48.097656 -32.375 51.140625 -33.71875 C 54.191406 -35.0625 56.265625 -36.847656 57.359375 -39.078125 C 58.460938 -41.316406 59.015625 -43.695312 59.015625 -46.21875 C 59.015625 -48.8125 58.460938 -51.144531 57.359375 -53.21875 C 56.265625 -55.289062 54.191406 -56.957031 51.140625 -58.21875 C 48.097656 -59.476562 43.648438 -60.109375 37.796875 -60.109375 C 32.023438 -60.109375 27.613281 -59.476562 24.5625 -58.21875 C 21.519531 -56.957031 19.445312 -55.289062 18.34375 -53.21875 C 17.25 -51.144531 16.703125 -48.8125 16.703125 -46.21875 Z M 16.703125 -46.21875 "/></g></g></g><g fill="#ffffff" fill-opacity="1"><g transform="translate(313.006479, 339.569733)"><g/></g></g><g fill="#ffffff" fill-opacity="1"><g transform="translate(334.950748, 339.569733)"><g><path d="M 15.25 -20 C 17.6875 -22.925781 20.46875 -25.628906 23.59375 -28.109375 C 26.726562 -30.585938 30.144531 -33.410156 33.84375 -36.578125 C 37.539062 -39.753906 41.421875 -43.738281 45.484375 -48.53125 C 49.628906 -53.488281 52.859375 -57.957031 55.171875 -61.9375 C 57.492188 -65.925781 59.523438 -69.585938 61.265625 -72.921875 C 63.015625 -76.253906 65.109375 -79.425781 67.546875 -82.4375 C 69.910156 -85.28125 72.367188 -86.84375 74.921875 -87.125 C 77.484375 -87.40625 79.742188 -86.773438 81.703125 -85.234375 C 83.734375 -83.691406 84.769531 -81.535156 84.8125 -78.765625 C 84.851562 -76.003906 83.53125 -73.078125 80.84375 -69.984375 C 78.488281 -67.222656 75.847656 -64.703125 72.921875 -62.421875 C 69.992188 -60.148438 66.78125 -57.550781 63.28125 -54.625 C 59.789062 -51.695312 56.015625 -47.796875 51.953125 -42.921875 C 47.878906 -38.128906 44.625 -33.640625 42.1875 -29.453125 C 39.75 -25.265625 37.59375 -21.421875 35.71875 -17.921875 C 33.851562 -14.429688 31.660156 -11.222656 29.140625 -8.296875 C 26.867188 -5.453125 24.472656 -3.96875 21.953125 -3.84375 C 19.429688 -3.71875 17.234375 -4.425781 15.359375 -5.96875 C 13.410156 -7.675781 12.3125 -9.726562 12.0625 -12.125 C 11.820312 -14.53125 12.882812 -17.15625 15.25 -20 Z M 26.34375 -86.578125 C 32.269531 -86.578125 37.125 -84.707031 40.90625 -80.96875 C 44.6875 -77.226562 46.578125 -71.90625 46.578125 -65 C 46.578125 -58.25 44.6875 -53.003906 40.90625 -49.265625 C 37.125 -45.523438 32.269531 -43.65625 26.34375 -43.65625 C 20.320312 -43.570312 15.441406 -45.421875 11.703125 -49.203125 C 7.960938 -52.984375 6.09375 -58.25 6.09375 -65 C 6.09375 -71.90625 7.960938 -77.25 11.703125 -81.03125 C 15.441406 -84.8125 20.320312 -86.660156 26.34375 -86.578125 Z M 15.25 -65.109375 C 15.25 -64.210938 15.507812 -63.359375 16.03125 -62.546875 C 16.5625 -61.734375 17.617188 -61.082031 19.203125 -60.59375 C 20.785156 -60.113281 23.164062 -59.875 26.34375 -59.875 C 29.507812 -59.875 31.863281 -60.113281 33.40625 -60.59375 C 34.957031 -61.082031 35.972656 -61.734375 36.453125 -62.546875 C 36.941406 -63.359375 37.1875 -64.210938 37.1875 -65.109375 C 37.1875 -66.085938 36.941406 -66.984375 36.453125 -67.796875 C 35.972656 -68.609375 34.957031 -69.257812 33.40625 -69.75 C 31.863281 -70.238281 29.507812 -70.484375 26.34375 -70.484375 C 23.164062 -70.484375 20.785156 -70.238281 19.203125 -69.75 C 17.617188 -69.257812 16.5625 -68.609375 16.03125 -67.796875 C 15.507812 -66.984375 15.25 -66.085938 15.25 -65.109375 Z M 50 -25.125 C 50 -31.863281 51.867188 -37.101562 55.609375 -40.84375 C 59.347656 -44.582031 64.179688 -46.453125 70.109375 -46.453125 C 76.128906 -46.535156 81.03125 -44.6875 84.8125 -40.90625 C 88.59375 -37.125 90.484375 -31.863281 90.484375 -25.125 C 90.484375 -18.207031 88.59375 -12.835938 84.8125 -9.015625 C 81.03125 -5.203125 76.128906 -3.335938 70.109375 -3.421875 C 64.179688 -3.421875 59.347656 -5.304688 55.609375 -9.078125 C 51.867188 -12.859375 50 -18.207031 50 -25.125 Z M 59.265625 -24.75 C 59.265625 -23.851562 59.523438 -23 60.046875 -22.1875 C 60.578125 -21.375 61.632812 -20.722656 63.21875 -20.234375 C 64.8125 -19.753906 67.191406 -19.515625 70.359375 -19.515625 C 73.523438 -19.515625 75.878906 -19.753906 77.421875 -20.234375 C 78.972656 -20.722656 79.988281 -21.375 80.46875 -22.1875 C 80.957031 -23 81.203125 -23.851562 81.203125 -24.75 C 81.203125 -25.726562 80.957031 -26.625 80.46875 -27.4375 C 79.988281 -28.25 78.972656 -28.898438 77.421875 -29.390625 C 75.878906 -29.878906 73.523438 -30.125 70.359375 -30.125 C 67.191406 -30.125 64.8125 -29.878906 63.21875 -29.390625 C 61.632812 -28.898438 60.578125 -28.25 60.046875 -27.4375 C 59.523438 -26.625 59.265625 -25.726562 59.265625 -24.75 Z M 59.265625 -24.75 "/></g></g></g><g clip-path="url(#1eb266411a)"><g clip-path="url(#037e8fa4c6)"><path fill="#8c52ff" d="M 7.980469 0 L 586.792969 0 L 586.792969 578.8125 L 7.980469 578.8125 Z M 7.980469 0 " fill-opacity="1" fill-rule="nonzero"/></g></g><g clip-path="url(#7ce48ef483)"><g clip-path="url(#12cd66a9da)"><path fill="#5e17eb" d="M 7.980469 0 L 586.792969 0 L 586.792969 578.8125 L 7.980469 578.8125 Z M 7.980469 0 " fill-opacity="1" fill-rule="nonzero"/></g></g></svg>