<svg xmlns="http://www.w3.org/2000/svg" xmlns:xlink="http://www.w3.org/1999/xlink" width="793" zoomAndPan="magnify" viewBox="0 0 595.5 595.499986" height="793" preserveAspectRatio="xMidYMid meet" version="1.0"><defs><g/><clipPath id="b613a14320"><path d="M 7.980469 0 L 586.792969 0 L 586.792969 578.8125 L 7.980469 578.8125 Z M 7.980469 0 " clip-rule="nonzero"/></clipPath><clipPath id="77ccba966a"><path d="M 297.386719 0 C 457.222656 0 586.792969 129.570312 586.792969 289.40625 C 586.792969 449.242188 457.222656 578.8125 297.386719 578.8125 C 137.554688 578.8125 7.980469 449.242188 7.980469 289.40625 C 7.980469 129.570312 137.554688 0 297.386719 0 L 297.386719 98.398438 C 191.898438 98.398438 106.378906 183.914062 106.378906 289.40625 C 106.378906 394.898438 191.898438 480.414062 297.386719 480.414062 C 402.878906 480.414062 488.394531 394.898438 488.394531 289.40625 C 488.394531 183.914062 402.878906 98.398438 297.386719 98.398438 Z M 297.386719 0 " clip-rule="nonzero"/></clipPath><clipPath id="ba56736325"><path d="M 7 5 L 587 5 L 587 579 L 7 579 Z M 7 5 " clip-rule="nonzero"/></clipPath><clipPath id="3868dcb92e"><path d="M 356.664062 6.136719 C 500.117188 36.152344 598.488281 168.675781 585.6875 314.675781 C 572.890625 460.679688 452.96875 574.066406 306.480469 578.667969 C 159.988281 583.273438 33.183594 477.640625 11.242188 332.730469 C -10.695312 187.820312 79.15625 49.382812 220.441406 10.417969 C 246.636719 3.191406 273.726562 18.570312 280.953125 44.765625 C 288.175781 70.957031 272.796875 98.046875 246.605469 105.273438 C 153.355469 130.992188 94.050781 222.359375 108.53125 318 C 123.011719 413.640625 206.703125 483.359375 303.386719 480.320312 C 400.070312 477.28125 479.21875 402.445312 487.667969 306.085938 C 496.113281 209.722656 431.191406 122.261719 336.511719 102.449219 C 309.914062 96.882812 292.867188 70.808594 298.429688 44.214844 C 303.996094 17.617188 330.066406 0.570312 356.664062 6.136719 Z M 356.664062 6.136719 " clip-rule="nonzero"/></clipPath></defs><g fill="#ffffff" fill-opacity="1"><g transform="translate(166.160532, 339.569733)"><g><path d="M 51.21875 -41.828125 C 49.664062 -41.171875 47.425781 -40.4375 44.5 -39.625 C 41.582031 -38.8125 37.398438 -38.40625 31.953125 -38.40625 C 28.210938 -38.40625 24.59375 -38.707031 21.09375 -39.3125 C 17.601562 -39.925781 14.453125 -41.066406 11.640625 -42.734375 C 8.835938 -44.398438 6.601562 -46.773438 4.9375 -49.859375 C 3.269531 -52.953125 2.4375 -56.976562 2.4375 -61.9375 C 2.4375 -68.53125 3.941406 -73.859375 6.953125 -77.921875 C 9.960938 -81.984375 13.925781 -84.925781 18.84375 -86.75 C 23.757812 -88.582031 28.984375 -89.5 34.515625 -89.5 C 41.253906 -89.5 46.878906 -88.421875 51.390625 -86.265625 C 55.910156 -84.117188 59.488281 -81.070312 62.125 -77.125 C 64.769531 -73.1875 66.660156 -68.550781 67.796875 -63.21875 C 68.929688 -57.894531 69.5 -52.066406 69.5 -45.734375 C 69.5 -31.015625 66.207031 -19.710938 59.625 -11.828125 C 53.039062 -3.941406 44.054688 0 32.671875 0 C 22.679688 0 15.46875 -1.316406 11.03125 -3.953125 C 6.601562 -6.597656 4.390625 -10.726562 4.390625 -16.34375 C 4.390625 -19.914062 5.523438 -23.039062 7.796875 -25.71875 C 10.078125 -28.40625 13.046875 -29.75 16.703125 -29.75 C 20.035156 -29.75 23.039062 -29.484375 25.71875 -28.953125 C 28.40625 -28.429688 31.132812 -28.171875 33.90625 -28.171875 C 40.15625 -28.171875 44.601562 -29.507812 47.25 -32.1875 C 49.894531 -34.875 51.21875 -38.085938 51.21875 -41.828125 Z M 18.296875 -57.3125 C 18.296875 -55.84375 18.703125 -54.703125 19.515625 -53.890625 C 20.328125 -53.078125 21.828125 -52.507812 24.015625 -52.1875 C 26.210938 -51.863281 29.34375 -51.703125 33.40625 -51.703125 C 39.425781 -51.703125 43.59375 -52.085938 45.90625 -52.859375 C 48.226562 -53.628906 49.390625 -55.113281 49.390625 -57.3125 C 49.390625 -59.425781 48.226562 -60.910156 45.90625 -61.765625 C 43.59375 -62.617188 39.425781 -63.046875 33.40625 -63.046875 C 29.34375 -63.046875 26.210938 -62.859375 24.015625 -62.484375 C 21.828125 -62.117188 20.328125 -61.53125 19.515625 -60.71875 C 18.703125 -59.90625 18.296875 -58.769531 18.296875 -57.3125 Z M 18.296875 -57.3125 "/></g></g></g><g fill="#ffffff" fill-opacity="1"><g transform="translate(238.088871, 339.569733)"><g><path d="M 51.21875 -41.828125 C 49.664062 -41.171875 47.425781 -40.4375 44.5 -39.625 C 41.582031 -38.8125 37.398438 -38.40625 31.953125 -38.40625 C 28.210938 -38.40625 24.59375 -38.707031 21.09375 -39.3125 C 17.601562 -39.925781 14.453125 -41.066406 11.640625 -42.734375 C 8.835938 -44.398438 6.601562 -46.773438 4.9375 -49.859375 C 3.269531 -52.953125 2.4375 -56.976562 2.4375 -61.9375 C 2.4375 -68.53125 3.941406 -73.859375 6.953125 -77.921875 C 9.960938 -81.984375 13.925781 -84.925781 18.84375 -86.75 C 23.757812 -88.582031 28.984375 -89.5 34.515625 -89.5 C 41.253906 -89.5 46.878906 -88.421875 51.390625 -86.265625 C 55.910156 -84.117188 59.488281 -81.070312 62.125 -77.125 C 64.769531 -73.1875 66.660156 -68.550781 67.796875 -63.21875 C 68.929688 -57.894531 69.5 -52.066406 69.5 -45.734375 C 69.5 -31.015625 66.207031 -19.710938 59.625 -11.828125 C 53.039062 -3.941406 44.054688 0 32.671875 0 C 22.679688 0 15.46875 -1.316406 11.03125 -3.953125 C 6.601562 -6.597656 4.390625 -10.726562 4.390625 -16.34375 C 4.390625 -19.914062 5.523438 -23.039062 7.796875 -25.71875 C 10.078125 -28.40625 13.046875 -29.75 16.703125 -29.75 C 20.035156 -29.75 23.039062 -29.484375 25.71875 -28.953125 C 28.40625 -28.429688 31.132812 -28.171875 33.90625 -28.171875 C 40.15625 -28.171875 44.601562 -29.507812 47.25 -32.1875 C 49.894531 -34.875 51.21875 -38.085938 51.21875 -41.828125 Z M 18.296875 -57.3125 C 18.296875 -55.84375 18.703125 -54.703125 19.515625 -53.890625 C 20.328125 -53.078125 21.828125 -52.507812 24.015625 -52.1875 C 26.210938 -51.863281 29.34375 -51.703125 33.40625 -51.703125 C 39.425781 -51.703125 43.59375 -52.085938 45.90625 -52.859375 C 48.226562 -53.628906 49.390625 -55.113281 49.390625 -57.3125 C 49.390625 -59.425781 48.226562 -60.910156 45.90625 -61.765625 C 43.59375 -62.617188 39.425781 -63.046875 33.40625 -63.046875 C 29.34375 -63.046875 26.210938 -62.859375 24.015625 -62.484375 C 21.828125 -62.117188 20.328125 -61.53125 19.515625 -60.71875 C 18.703125 -59.90625 18.296875 -58.769531 18.296875 -57.3125 Z M 18.296875 -57.3125 "/></g></g></g><g fill="#ffffff" fill-opacity="1"><g transform="translate(310.01721, 339.569733)"><g/></g></g><g fill="#ffffff" fill-opacity="1"><g transform="translate(331.961479, 339.569733)"><g><path d="M 15.25 -20 C 17.6875 -22.925781 20.46875 -25.628906 23.59375 -28.109375 C 26.726562 -30.585938 30.144531 -33.410156 33.84375 -36.578125 C 37.539062 -39.753906 41.421875 -43.738281 45.484375 -48.53125 C 49.628906 -53.488281 52.859375 -57.957031 55.171875 -61.9375 C 57.492188 -65.925781 59.523438 -69.585938 61.265625 -72.921875 C 63.015625 -76.253906 65.109375 -79.425781 67.546875 -82.4375 C 69.910156 -85.28125 72.367188 -86.84375 74.921875 -87.125 C 77.484375 -87.40625 79.742188 -86.773438 81.703125 -85.234375 C 83.734375 -83.691406 84.769531 -81.535156 84.8125 -78.765625 C 84.851562 -76.003906 83.53125 -73.078125 80.84375 -69.984375 C 78.488281 -67.222656 75.847656 -64.703125 72.921875 -62.421875 C 69.992188 -60.148438 66.78125 -57.550781 63.28125 -54.625 C 59.789062 -51.695312 56.015625 -47.796875 51.953125 -42.921875 C 47.878906 -38.128906 44.625 -33.640625 42.1875 -29.453125 C 39.75 -25.265625 37.59375 -21.421875 35.71875 -17.921875 C 33.851562 -14.429688 31.660156 -11.222656 29.140625 -8.296875 C 26.867188 -5.453125 24.472656 -3.96875 21.953125 -3.84375 C 19.429688 -3.71875 17.234375 -4.425781 15.359375 -5.96875 C 13.410156 -7.675781 12.3125 -9.726562 12.0625 -12.125 C 11.820312 -14.53125 12.882812 -17.15625 15.25 -20 Z M 26.34375 -86.578125 C 32.269531 -86.578125 37.125 -84.707031 40.90625 -80.96875 C 44.6875 -77.226562 46.578125 -71.90625 46.578125 -65 C 46.578125 -58.25 44.6875 -53.003906 40.90625 -49.265625 C 37.125 -45.523438 32.269531 -43.65625 26.34375 -43.65625 C 20.320312 -43.570312 15.441406 -45.421875 11.703125 -49.203125 C 7.960938 -52.984375 6.09375 -58.25 6.09375 -65 C 6.09375 -71.90625 7.960938 -77.25 11.703125 -81.03125 C 15.441406 -84.8125 20.320312 -86.660156 26.34375 -86.578125 Z M 15.25 -65.109375 C 15.25 -64.210938 15.507812 -63.359375 16.03125 -62.546875 C 16.5625 -61.734375 17.617188 -61.082031 19.203125 -60.59375 C 20.785156 -60.113281 23.164062 -59.875 26.34375 -59.875 C 29.507812 -59.875 31.863281 -60.113281 33.40625 -60.59375 C 34.957031 -61.082031 35.972656 -61.734375 36.453125 -62.546875 C 36.941406 -63.359375 37.1875 -64.210938 37.1875 -65.109375 C 37.1875 -66.085938 36.941406 -66.984375 36.453125 -67.796875 C 35.972656 -68.609375 34.957031 -69.257812 33.40625 -69.75 C 31.863281 -70.238281 29.507812 -70.484375 26.34375 -70.484375 C 23.164062 -70.484375 20.785156 -70.238281 19.203125 -69.75 C 17.617188 -69.257812 16.5625 -68.609375 16.03125 -67.796875 C 15.507812 -66.984375 15.25 -66.085938 15.25 -65.109375 Z M 50 -25.125 C 50 -31.863281 51.867188 -37.101562 55.609375 -40.84375 C 59.347656 -44.582031 64.179688 -46.453125 70.109375 -46.453125 C 76.128906 -46.535156 81.03125 -44.6875 84.8125 -40.90625 C 88.59375 -37.125 90.484375 -31.863281 90.484375 -25.125 C 90.484375 -18.207031 88.59375 -12.835938 84.8125 -9.015625 C 81.03125 -5.203125 76.128906 -3.335938 70.109375 -3.421875 C 64.179688 -3.421875 59.347656 -5.304688 55.609375 -9.078125 C 51.867188 -12.859375 50 -18.207031 50 -25.125 Z M 59.265625 -24.75 C 59.265625 -23.851562 59.523438 -23 60.046875 -22.1875 C 60.578125 -21.375 61.632812 -20.722656 63.21875 -20.234375 C 64.8125 -19.753906 67.191406 -19.515625 70.359375 -19.515625 C 73.523438 -19.515625 75.878906 -19.753906 77.421875 -20.234375 C 78.972656 -20.722656 79.988281 -21.375 80.46875 -22.1875 C 80.957031 -23 81.203125 -23.851562 81.203125 -24.75 C 81.203125 -25.726562 80.957031 -26.625 80.46875 -27.4375 C 79.988281 -28.25 78.972656 -28.898438 77.421875 -29.390625 C 75.878906 -29.878906 73.523438 -30.125 70.359375 -30.125 C 67.191406 -30.125 64.8125 -29.878906 63.21875 -29.390625 C 61.632812 -28.898438 60.578125 -28.25 60.046875 -27.4375 C 59.523438 -26.625 59.265625 -25.726562 59.265625 -24.75 Z M 59.265625 -24.75 "/></g></g></g><g clip-path="url(#b613a14320)"><g clip-path="url(#77ccba966a)"><path fill="#8c52ff" d="M 7.980469 0 L 586.792969 0 L 586.792969 578.8125 L 7.980469 578.8125 Z M 7.980469 0 " fill-opacity="1" fill-rule="nonzero"/></g></g><g clip-path="url(#ba56736325)"><g clip-path="url(#3868dcb92e)"><path fill="#5e17eb" d="M 7.980469 0 L 586.792969 0 L 586.792969 578.8125 L 7.980469 578.8125 Z M 7.980469 0 " fill-opacity="1" fill-rule="nonzero"/></g></g></svg>