<svg xmlns="http://www.w3.org/2000/svg" xmlns:xlink="http://www.w3.org/1999/xlink" width="793" zoomAndPan="magnify" viewBox="0 0 595.5 595.499986" height="793" preserveAspectRatio="xMidYMid meet" version="1.0"><defs><g/><clipPath id="d78f3e76d7"><path d="M 7.980469 0 L 586.792969 0 L 586.792969 578.8125 L 7.980469 578.8125 Z M 7.980469 0 " clip-rule="nonzero"/></clipPath><clipPath id="d3ac4259a1"><path d="M 297.386719 0 C 457.222656 0 586.792969 129.570312 586.792969 289.40625 C 586.792969 449.242188 457.222656 578.8125 297.386719 578.8125 C 137.554688 578.8125 7.980469 449.242188 7.980469 289.40625 C 7.980469 129.570312 137.554688 0 297.386719 0 L 297.386719 98.398438 C 191.898438 98.398438 106.378906 183.914062 106.378906 289.40625 C 106.378906 394.898438 191.898438 480.414062 297.386719 480.414062 C 402.878906 480.414062 488.394531 394.898438 488.394531 289.40625 C 488.394531 183.914062 402.878906 98.398438 297.386719 98.398438 Z M 297.386719 0 " clip-rule="nonzero"/></clipPath><clipPath id="a9477a511c"><path d="M 297 5 L 587 5 L 587 365 L 297 365 Z M 297 5 " clip-rule="nonzero"/></clipPath><clipPath id="cd97945194"><path d="M 356.664062 6.136719 C 502.332031 36.617188 601.136719 172.609375 585.113281 320.566406 C 582.1875 347.582031 557.914062 367.109375 530.902344 364.183594 C 503.886719 361.257812 484.359375 336.984375 487.285156 309.972656 C 497.863281 212.320312 432.652344 122.566406 336.511719 102.449219 C 319.304688 98.847656 305.328125 86.34375 299.84375 69.644531 C 294.359375 52.941406 298.203125 34.585938 309.921875 21.488281 C 321.640625 8.386719 339.460938 2.535156 356.664062 6.136719 Z M 356.664062 6.136719 " clip-rule="nonzero"/></clipPath></defs><g fill="#ffffff" fill-opacity="1"><g transform="translate(163.477492, 339.569733)"><g><path d="M 36.21875 -0.125 C 30.363281 -0.207031 24.9375 -0.691406 19.9375 -1.578125 C 14.9375 -2.472656 10.910156 -4.097656 7.859375 -6.453125 C 4.816406 -8.816406 3.296875 -12.113281 3.296875 -16.34375 C 3.296875 -20.644531 4.453125 -23.953125 6.765625 -26.265625 C 9.085938 -28.585938 11.992188 -29.75 15.484375 -29.75 C 19.878906 -29.75 23.757812 -29.460938 27.125 -28.890625 C 30.5 -28.328125 34.179688 -28.046875 38.171875 -28.046875 C 41.578125 -28.046875 43.867188 -28.570312 45.046875 -29.625 C 46.234375 -30.6875 46.828125 -32.148438 46.828125 -34.015625 C 46.828125 -38.003906 43.613281 -40 37.1875 -40 L 30.234375 -40 C 27.472656 -40 25.484375 -40.664062 24.265625 -42 C 23.046875 -43.34375 22.4375 -44.953125 22.4375 -46.828125 C 22.4375 -48.773438 23.046875 -50.398438 24.265625 -51.703125 C 25.484375 -53.003906 27.472656 -53.65625 30.234375 -53.65625 L 37.1875 -53.65625 C 40.195312 -53.65625 42.1875 -54.242188 43.15625 -55.421875 C 44.132812 -56.597656 44.625 -58.082031 44.625 -59.875 C 44.625 -61.332031 44.09375 -62.46875 43.03125 -63.28125 C 41.976562 -64.09375 40.113281 -64.5 37.4375 -64.5 C 34.1875 -64.5 30.894531 -64.09375 27.5625 -63.28125 C 24.226562 -62.46875 20.769531 -62.0625 17.1875 -62.0625 C 13.375 -62.0625 10.144531 -62.894531 7.5 -64.5625 C 4.851562 -66.226562 3.53125 -69.421875 3.53125 -74.140625 C 3.53125 -77.390625 4.484375 -80.007812 6.390625 -82 C 8.304688 -83.988281 10.890625 -85.53125 14.140625 -86.625 C 17.390625 -87.726562 20.984375 -88.484375 24.921875 -88.890625 C 28.867188 -89.296875 32.914062 -89.5 37.0625 -89.5 C 42.914062 -89.5 48.238281 -88.785156 53.03125 -87.359375 C 57.832031 -85.941406 61.675781 -83.644531 64.5625 -80.46875 C 67.445312 -77.300781 68.890625 -72.992188 68.890625 -67.546875 C 68.890625 -61.617188 67 -56.84375 63.21875 -53.21875 C 59.4375 -49.601562 54.457031 -47.796875 48.28125 -47.796875 L 48.28125 -45.109375 C 52.425781 -45.109375 56.144531 -44.4375 59.4375 -43.09375 C 62.738281 -41.757812 65.363281 -39.628906 67.3125 -36.703125 C 69.257812 -33.773438 70.234375 -29.875 70.234375 -25 C 70.234375 -19.46875 68.6875 -14.851562 65.59375 -11.15625 C 62.507812 -7.457031 58.40625 -4.691406 53.28125 -2.859375 C 48.164062 -1.035156 42.476562 -0.125 36.21875 -0.125 Z M 36.21875 -0.125 "/></g></g></g><g fill="#ffffff" fill-opacity="1"><g transform="translate(236.990699, 339.569733)"><g><path d="M 37.796875 0.359375 C 29.671875 0.359375 23.046875 -1.46875 17.921875 -5.125 C 12.804688 -8.78125 9.046875 -13.976562 6.640625 -20.71875 C 4.242188 -27.46875 3.046875 -35.394531 3.046875 -44.5 C 3.046875 -53.613281 4.328125 -61.519531 6.890625 -68.21875 C 9.453125 -74.925781 13.289062 -80.148438 18.40625 -83.890625 C 23.53125 -87.628906 29.992188 -89.5 37.796875 -89.5 C 45.597656 -89.5 52.082031 -87.628906 57.25 -83.890625 C 62.414062 -80.148438 66.273438 -74.925781 68.828125 -68.21875 C 71.390625 -61.519531 72.671875 -53.613281 72.671875 -44.5 C 72.671875 -35.394531 71.472656 -27.46875 69.078125 -20.71875 C 66.679688 -13.976562 62.921875 -8.78125 57.796875 -5.125 C 52.671875 -1.46875 46.003906 0.359375 37.796875 0.359375 Z M 16.703125 -46.21875 C 16.703125 -43.695312 17.25 -41.316406 18.34375 -39.078125 C 19.445312 -36.847656 21.519531 -35.0625 24.5625 -33.71875 C 27.613281 -32.375 32.023438 -31.703125 37.796875 -31.703125 C 43.648438 -31.703125 48.097656 -32.375 51.140625 -33.71875 C 54.191406 -35.0625 56.265625 -36.847656 57.359375 -39.078125 C 58.460938 -41.316406 59.015625 -43.695312 59.015625 -46.21875 C 59.015625 -48.8125 58.460938 -51.144531 57.359375 -53.21875 C 56.265625 -55.289062 54.191406 -56.957031 51.140625 -58.21875 C 48.097656 -59.476562 43.648438 -60.109375 37.796875 -60.109375 C 32.023438 -60.109375 27.613281 -59.476562 24.5625 -58.21875 C 21.519531 -56.957031 19.445312 -55.289062 18.34375 -53.21875 C 17.25 -51.144531 16.703125 -48.8125 16.703125 -46.21875 Z M 16.703125 -46.21875 "/></g></g></g><g fill="#ffffff" fill-opacity="1"><g transform="translate(312.698357, 339.569733)"><g/></g></g><g fill="#ffffff" fill-opacity="1"><g transform="translate(334.642626, 339.569733)"><g><path d="M 15.25 -20 C 17.6875 -22.925781 20.46875 -25.628906 23.59375 -28.109375 C 26.726562 -30.585938 30.144531 -33.410156 33.84375 -36.578125 C 37.539062 -39.753906 41.421875 -43.738281 45.484375 -48.53125 C 49.628906 -53.488281 52.859375 -57.957031 55.171875 -61.9375 C 57.492188 -65.925781 59.523438 -69.585938 61.265625 -72.921875 C 63.015625 -76.253906 65.109375 -79.425781 67.546875 -82.4375 C 69.910156 -85.28125 72.367188 -86.84375 74.921875 -87.125 C 77.484375 -87.40625 79.742188 -86.773438 81.703125 -85.234375 C 83.734375 -83.691406 84.769531 -81.535156 84.8125 -78.765625 C 84.851562 -76.003906 83.53125 -73.078125 80.84375 -69.984375 C 78.488281 -67.222656 75.847656 -64.703125 72.921875 -62.421875 C 69.992188 -60.148438 66.78125 -57.550781 63.28125 -54.625 C 59.789062 -51.695312 56.015625 -47.796875 51.953125 -42.921875 C 47.878906 -38.128906 44.625 -33.640625 42.1875 -29.453125 C 39.75 -25.265625 37.59375 -21.421875 35.71875 -17.921875 C 33.851562 -14.429688 31.660156 -11.222656 29.140625 -8.296875 C 26.867188 -5.453125 24.472656 -3.96875 21.953125 -3.84375 C 19.429688 -3.71875 17.234375 -4.425781 15.359375 -5.96875 C 13.410156 -7.675781 12.3125 -9.726562 12.0625 -12.125 C 11.820312 -14.53125 12.882812 -17.15625 15.25 -20 Z M 26.34375 -86.578125 C 32.269531 -86.578125 37.125 -84.707031 40.90625 -80.96875 C 44.6875 -77.226562 46.578125 -71.90625 46.578125 -65 C 46.578125 -58.25 44.6875 -53.003906 40.90625 -49.265625 C 37.125 -45.523438 32.269531 -43.65625 26.34375 -43.65625 C 20.320312 -43.570312 15.441406 -45.421875 11.703125 -49.203125 C 7.960938 -52.984375 6.09375 -58.25 6.09375 -65 C 6.09375 -71.90625 7.960938 -77.25 11.703125 -81.03125 C 15.441406 -84.8125 20.320312 -86.660156 26.34375 -86.578125 Z M 15.25 -65.109375 C 15.25 -64.210938 15.507812 -63.359375 16.03125 -62.546875 C 16.5625 -61.734375 17.617188 -61.082031 19.203125 -60.59375 C 20.785156 -60.113281 23.164062 -59.875 26.34375 -59.875 C 29.507812 -59.875 31.863281 -60.113281 33.40625 -60.59375 C 34.957031 -61.082031 35.972656 -61.734375 36.453125 -62.546875 C 36.941406 -63.359375 37.1875 -64.210938 37.1875 -65.109375 C 37.1875 -66.085938 36.941406 -66.984375 36.453125 -67.796875 C 35.972656 -68.609375 34.957031 -69.257812 33.40625 -69.75 C 31.863281 -70.238281 29.507812 -70.484375 26.34375 -70.484375 C 23.164062 -70.484375 20.785156 -70.238281 19.203125 -69.75 C 17.617188 -69.257812 16.5625 -68.609375 16.03125 -67.796875 C 15.507812 -66.984375 15.25 -66.085938 15.25 -65.109375 Z M 50 -25.125 C 50 -31.863281 51.867188 -37.101562 55.609375 -40.84375 C 59.347656 -44.582031 64.179688 -46.453125 70.109375 -46.453125 C 76.128906 -46.535156 81.03125 -44.6875 84.8125 -40.90625 C 88.59375 -37.125 90.484375 -31.863281 90.484375 -25.125 C 90.484375 -18.207031 88.59375 -12.835938 84.8125 -9.015625 C 81.03125 -5.203125 76.128906 -3.335938 70.109375 -3.421875 C 64.179688 -3.421875 59.347656 -5.304688 55.609375 -9.078125 C 51.867188 -12.859375 50 -18.207031 50 -25.125 Z M 59.265625 -24.75 C 59.265625 -23.851562 59.523438 -23 60.046875 -22.1875 C 60.578125 -21.375 61.632812 -20.722656 63.21875 -20.234375 C 64.8125 -19.753906 67.191406 -19.515625 70.359375 -19.515625 C 73.523438 -19.515625 75.878906 -19.753906 77.421875 -20.234375 C 78.972656 -20.722656 79.988281 -21.375 80.46875 -22.1875 C 80.957031 -23 81.203125 -23.851562 81.203125 -24.75 C 81.203125 -25.726562 80.957031 -26.625 80.46875 -27.4375 C 79.988281 -28.25 78.972656 -28.898438 77.421875 -29.390625 C 75.878906 -29.878906 73.523438 -30.125 70.359375 -30.125 C 67.191406 -30.125 64.8125 -29.878906 63.21875 -29.390625 C 61.632812 -28.898438 60.578125 -28.25 60.046875 -27.4375 C 59.523438 -26.625 59.265625 -25.726562 59.265625 -24.75 Z M 59.265625 -24.75 "/></g></g></g><g clip-path="url(#d78f3e76d7)"><g clip-path="url(#d3ac4259a1)"><path fill="#8c52ff" d="M 7.980469 0 L 586.792969 0 L 586.792969 578.8125 L 7.980469 578.8125 Z M 7.980469 0 " fill-opacity="1" fill-rule="nonzero"/></g></g><g clip-path="url(#a9477a511c)"><g clip-path="url(#cd97945194)"><path fill="#5e17eb" d="M 7.980469 0 L 586.792969 0 L 586.792969 578.8125 L 7.980469 578.8125 Z M 7.980469 0 " fill-opacity="1" fill-rule="nonzero"/></g></g></svg>