<svg xmlns="http://www.w3.org/2000/svg" xmlns:xlink="http://www.w3.org/1999/xlink" width="793" zoomAndPan="magnify" viewBox="0 0 595.5 595.499986" height="793" preserveAspectRatio="xMidYMid meet" version="1.0"><defs><g/><clipPath id="934ff6e82d"><path d="M 7.980469 0 L 586.792969 0 L 586.792969 578.8125 L 7.980469 578.8125 Z M 7.980469 0 " clip-rule="nonzero"/></clipPath><clipPath id="08b3da037f"><path d="M 297.386719 0 C 457.222656 0 586.792969 129.570312 586.792969 289.40625 C 586.792969 449.242188 457.222656 578.8125 297.386719 578.8125 C 137.554688 578.8125 7.980469 449.242188 7.980469 289.40625 C 7.980469 129.570312 137.554688 0 297.386719 0 L 297.386719 98.398438 C 191.898438 98.398438 106.378906 183.914062 106.378906 289.40625 C 106.378906 394.898438 191.898438 480.414062 297.386719 480.414062 C 402.878906 480.414062 488.394531 394.898438 488.394531 289.40625 C 488.394531 183.914062 402.878906 98.398438 297.386719 98.398438 Z M 297.386719 0 " clip-rule="nonzero"/></clipPath><clipPath id="f9475d68fa"><path d="M 7 5 L 587 5 L 587 579 L 7 579 Z M 7 5 " clip-rule="nonzero"/></clipPath><clipPath id="59841ce2f4"><path d="M 356.664062 6.136719 C 509.492188 38.117188 609.402344 185.5625 582.449219 339.359375 C 555.5 493.15625 411.40625 597.847656 256.808594 575.953125 C 102.210938 554.058594 -7.148438 413.476562 9.664062 258.246094 C 12.589844 231.230469 36.859375 211.703125 63.875 214.628906 C 90.890625 217.554688 110.417969 241.824219 107.492188 268.839844 C 96.394531 371.292969 168.570312 464.078125 270.605469 478.527344 C 372.640625 492.976562 467.742188 423.882812 485.527344 322.375 C 503.316406 220.871094 437.378906 123.554688 336.511719 102.449219 C 309.914062 96.882812 292.867188 70.808594 298.429688 44.214844 C 303.996094 17.617188 330.066406 0.570312 356.664062 6.136719 Z M 356.664062 6.136719 " clip-rule="nonzero"/></clipPath></defs><g fill="#ffffff" fill-opacity="1"><g transform="translate(161.306952, 339.569733)"><g><path d="M 39.015625 0.359375 C 31.703125 0.359375 25.320312 -0.53125 19.875 -2.3125 C 14.425781 -4.101562 10.21875 -6.828125 7.25 -10.484375 C 4.28125 -14.140625 2.796875 -18.734375 2.796875 -24.265625 C 2.796875 -29.054688 3.671875 -33.078125 5.421875 -36.328125 C 7.171875 -39.585938 9.46875 -42.128906 12.3125 -43.953125 C 15.15625 -45.785156 18.207031 -46.863281 21.46875 -47.1875 L 21.46875 -49.015625 C 16.5 -49.585938 12.59375 -51.273438 9.75 -54.078125 C 6.90625 -56.878906 5.484375 -61.003906 5.484375 -66.453125 C 5.484375 -73.441406 8.328125 -79.03125 14.015625 -83.21875 C 19.710938 -87.40625 28.046875 -89.5 39.015625 -89.5 C 49.992188 -89.5 58.304688 -87.40625 63.953125 -83.21875 C 69.609375 -79.03125 72.4375 -73.441406 72.4375 -66.453125 C 72.4375 -61.003906 71.03125 -56.878906 68.21875 -54.078125 C 65.414062 -51.273438 61.535156 -49.585938 56.578125 -49.015625 L 56.578125 -47.1875 C 59.910156 -46.863281 62.976562 -45.785156 65.78125 -43.953125 C 68.582031 -42.128906 70.859375 -39.585938 72.609375 -36.328125 C 74.359375 -33.078125 75.234375 -29.054688 75.234375 -24.265625 C 75.234375 -18.734375 73.75 -14.140625 70.78125 -10.484375 C 67.8125 -6.828125 63.601562 -4.101562 58.15625 -2.3125 C 52.71875 -0.53125 46.335938 0.359375 39.015625 0.359375 Z M 24.140625 -61.21875 C 24.140625 -59.101562 25.253906 -57.640625 27.484375 -56.828125 C 29.722656 -56.015625 33.566406 -55.609375 39.015625 -55.609375 C 44.460938 -55.609375 48.285156 -56.015625 50.484375 -56.828125 C 52.679688 -57.640625 53.78125 -59.101562 53.78125 -61.21875 C 53.78125 -63.332031 52.679688 -64.773438 50.484375 -65.546875 C 48.285156 -66.316406 44.460938 -66.703125 39.015625 -66.703125 C 33.566406 -66.703125 29.722656 -66.316406 27.484375 -65.546875 C 25.253906 -64.773438 24.140625 -63.332031 24.140625 -61.21875 Z M 22.078125 -34.265625 C 22.078125 -32.148438 23.296875 -30.664062 25.734375 -29.8125 C 28.171875 -28.957031 32.597656 -28.53125 39.015625 -28.53125 C 45.597656 -28.53125 50.085938 -28.957031 52.484375 -29.8125 C 54.890625 -30.664062 56.09375 -32.148438 56.09375 -34.265625 C 56.09375 -36.378906 54.890625 -37.84375 52.484375 -38.65625 C 50.085938 -39.46875 45.597656 -39.875 39.015625 -39.875 C 32.597656 -39.875 28.171875 -39.46875 25.734375 -38.65625 C 23.296875 -37.84375 22.078125 -36.378906 22.078125 -34.265625 Z M 22.078125 -34.265625 "/></g></g></g><g fill="#ffffff" fill-opacity="1"><g transform="translate(239.209002, 339.569733)"><g><path d="M 37.796875 0.359375 C 29.671875 0.359375 23.046875 -1.46875 17.921875 -5.125 C 12.804688 -8.78125 9.046875 -13.976562 6.640625 -20.71875 C 4.242188 -27.46875 3.046875 -35.394531 3.046875 -44.5 C 3.046875 -53.613281 4.328125 -61.519531 6.890625 -68.21875 C 9.453125 -74.925781 13.289062 -80.148438 18.40625 -83.890625 C 23.53125 -87.628906 29.992188 -89.5 37.796875 -89.5 C 45.597656 -89.5 52.082031 -87.628906 57.25 -83.890625 C 62.414062 -80.148438 66.273438 -74.925781 68.828125 -68.21875 C 71.390625 -61.519531 72.671875 -53.613281 72.671875 -44.5 C 72.671875 -35.394531 71.472656 -27.46875 69.078125 -20.71875 C 66.679688 -13.976562 62.921875 -8.78125 57.796875 -5.125 C 52.671875 -1.46875 46.003906 0.359375 37.796875 0.359375 Z M 16.703125 -46.21875 C 16.703125 -43.695312 17.25 -41.316406 18.34375 -39.078125 C 19.445312 -36.847656 21.519531 -35.0625 24.5625 -33.71875 C 27.613281 -32.375 32.023438 -31.703125 37.796875 -31.703125 C 43.648438 -31.703125 48.097656 -32.375 51.140625 -33.71875 C 54.191406 -35.0625 56.265625 -36.847656 57.359375 -39.078125 C 58.460938 -41.316406 59.015625 -43.695312 59.015625 -46.21875 C 59.015625 -48.8125 58.460938 -51.144531 57.359375 -53.21875 C 56.265625 -55.289062 54.191406 -56.957031 51.140625 -58.21875 C 48.097656 -59.476562 43.648438 -60.109375 37.796875 -60.109375 C 32.023438 -60.109375 27.613281 -59.476562 24.5625 -58.21875 C 21.519531 -56.957031 19.445312 -55.289062 18.34375 -53.21875 C 17.25 -51.144531 16.703125 -48.8125 16.703125 -46.21875 Z M 16.703125 -46.21875 "/></g></g></g><g fill="#ffffff" fill-opacity="1"><g transform="translate(314.91666, 339.569733)"><g/></g></g><g fill="#ffffff" fill-opacity="1"><g transform="translate(336.860929, 339.569733)"><g><path d="M 15.25 -20 C 17.6875 -22.925781 20.46875 -25.628906 23.59375 -28.109375 C 26.726562 -30.585938 30.144531 -33.410156 33.84375 -36.578125 C 37.539062 -39.753906 41.421875 -43.738281 45.484375 -48.53125 C 49.628906 -53.488281 52.859375 -57.957031 55.171875 -61.9375 C 57.492188 -65.925781 59.523438 -69.585938 61.265625 -72.921875 C 63.015625 -76.253906 65.109375 -79.425781 67.546875 -82.4375 C 69.910156 -85.28125 72.367188 -86.84375 74.921875 -87.125 C 77.484375 -87.40625 79.742188 -86.773438 81.703125 -85.234375 C 83.734375 -83.691406 84.769531 -81.535156 84.8125 -78.765625 C 84.851562 -76.003906 83.53125 -73.078125 80.84375 -69.984375 C 78.488281 -67.222656 75.847656 -64.703125 72.921875 -62.421875 C 69.992188 -60.148438 66.78125 -57.550781 63.28125 -54.625 C 59.789062 -51.695312 56.015625 -47.796875 51.953125 -42.921875 C 47.878906 -38.128906 44.625 -33.640625 42.1875 -29.453125 C 39.75 -25.265625 37.59375 -21.421875 35.71875 -17.921875 C 33.851562 -14.429688 31.660156 -11.222656 29.140625 -8.296875 C 26.867188 -5.453125 24.472656 -3.96875 21.953125 -3.84375 C 19.429688 -3.71875 17.234375 -4.425781 15.359375 -5.96875 C 13.410156 -7.675781 12.3125 -9.726562 12.0625 -12.125 C 11.820312 -14.53125 12.882812 -17.15625 15.25 -20 Z M 26.34375 -86.578125 C 32.269531 -86.578125 37.125 -84.707031 40.90625 -80.96875 C 44.6875 -77.226562 46.578125 -71.90625 46.578125 -65 C 46.578125 -58.25 44.6875 -53.003906 40.90625 -49.265625 C 37.125 -45.523438 32.269531 -43.65625 26.34375 -43.65625 C 20.320312 -43.570312 15.441406 -45.421875 11.703125 -49.203125 C 7.960938 -52.984375 6.09375 -58.25 6.09375 -65 C 6.09375 -71.90625 7.960938 -77.25 11.703125 -81.03125 C 15.441406 -84.8125 20.320312 -86.660156 26.34375 -86.578125 Z M 15.25 -65.109375 C 15.25 -64.210938 15.507812 -63.359375 16.03125 -62.546875 C 16.5625 -61.734375 17.617188 -61.082031 19.203125 -60.59375 C 20.785156 -60.113281 23.164062 -59.875 26.34375 -59.875 C 29.507812 -59.875 31.863281 -60.113281 33.40625 -60.59375 C 34.957031 -61.082031 35.972656 -61.734375 36.453125 -62.546875 C 36.941406 -63.359375 37.1875 -64.210938 37.1875 -65.109375 C 37.1875 -66.085938 36.941406 -66.984375 36.453125 -67.796875 C 35.972656 -68.609375 34.957031 -69.257812 33.40625 -69.75 C 31.863281 -70.238281 29.507812 -70.484375 26.34375 -70.484375 C 23.164062 -70.484375 20.785156 -70.238281 19.203125 -69.75 C 17.617188 -69.257812 16.5625 -68.609375 16.03125 -67.796875 C 15.507812 -66.984375 15.25 -66.085938 15.25 -65.109375 Z M 50 -25.125 C 50 -31.863281 51.867188 -37.101562 55.609375 -40.84375 C 59.347656 -44.582031 64.179688 -46.453125 70.109375 -46.453125 C 76.128906 -46.535156 81.03125 -44.6875 84.8125 -40.90625 C 88.59375 -37.125 90.484375 -31.863281 90.484375 -25.125 C 90.484375 -18.207031 88.59375 -12.835938 84.8125 -9.015625 C 81.03125 -5.203125 76.128906 -3.335938 70.109375 -3.421875 C 64.179688 -3.421875 59.347656 -5.304688 55.609375 -9.078125 C 51.867188 -12.859375 50 -18.207031 50 -25.125 Z M 59.265625 -24.75 C 59.265625 -23.851562 59.523438 -23 60.046875 -22.1875 C 60.578125 -21.375 61.632812 -20.722656 63.21875 -20.234375 C 64.8125 -19.753906 67.191406 -19.515625 70.359375 -19.515625 C 73.523438 -19.515625 75.878906 -19.753906 77.421875 -20.234375 C 78.972656 -20.722656 79.988281 -21.375 80.46875 -22.1875 C 80.957031 -23 81.203125 -23.851562 81.203125 -24.75 C 81.203125 -25.726562 80.957031 -26.625 80.46875 -27.4375 C 79.988281 -28.25 78.972656 -28.898438 77.421875 -29.390625 C 75.878906 -29.878906 73.523438 -30.125 70.359375 -30.125 C 67.191406 -30.125 64.8125 -29.878906 63.21875 -29.390625 C 61.632812 -28.898438 60.578125 -28.25 60.046875 -27.4375 C 59.523438 -26.625 59.265625 -25.726562 59.265625 -24.75 Z M 59.265625 -24.75 "/></g></g></g><g clip-path="url(#934ff6e82d)"><g clip-path="url(#08b3da037f)"><path fill="#8c52ff" d="M 7.980469 0 L 586.792969 0 L 586.792969 578.8125 L 7.980469 578.8125 Z M 7.980469 0 " fill-opacity="1" fill-rule="nonzero"/></g></g><g clip-path="url(#f9475d68fa)"><g clip-path="url(#59841ce2f4)"><path fill="#5e17eb" d="M 7.980469 0 L 586.792969 0 L 586.792969 578.8125 L 7.980469 578.8125 Z M 7.980469 0 " fill-opacity="1" fill-rule="nonzero"/></g></g></svg>